<?xml version="1.0" encoding="utf-8"?>
<svg viewBox="0 0 124.44 144" xmlns="http://www.w3.org/2000/svg">
  <defs>
    <style type="text/css" id="style6">
    line, polyline, path, rect, circle {
      fill: none;
      stroke: none;
      stroke-linecap: round;
      stroke-linejoin: round;
      stroke-miterlimit: 10.00;
    }
  </style>
  </defs>
  <polyline points="2.285 37.429 2.285 106.799 62.105 141.486 121.926 106.799 121.926 37.429 62.105 2.743 2.285 37.429" style="stroke-width: 4; fill: rgb(0, 102, 153); stroke: rgb(242, 175, 0);" clip-path="url(#cpMHwxMjQuNDQxfDE0My45OTd8MC4xNDMxMzc=)" id="polyline29"/>
  <path d="M 36.58 111.5 L 62.22 32.5 L 87.86 111.5 L 20.641 62.645 L 103.799 62.645" style="stroke: none; fill: rgb(0, 102, 153);"/>
  <path d="M 2.87 46.3 L 3.75 49.13 L 4.46 46.3 L 5.1 46.3 L 4.02 50 L 3.51 50 L 2.61 47.2 L 1.73 50 L 1.22 50 L 0.15 46.3 L 0.78 46.3 L 1.5 49.07 L 2.37 46.3 L 2.87 46.3 ZM 8.127 46.3 L 9.007 49.13 L 9.717 46.3 L 10.357 46.3 L 9.277 50 L 8.767 50 L 7.867 47.2 L 6.987 50 L 6.477 50 L 5.407 46.3 L 6.037 46.3 L 6.757 49.07 L 7.627 46.3 L 8.127 46.3 ZM 13.383 46.3 L 14.263 49.13 L 14.973 46.3 L 15.613 46.3 L 14.533 50 L 14.023 50 L 13.123 47.2 L 12.243 50 L 11.733 50 L 10.663 46.3 L 11.293 46.3 L 12.013 49.07 L 12.883 46.3 L 13.383 46.3 ZM 15.836 49.67 C 15.836 49.557 15.87 49.467 15.936 49.4 C 16.003 49.327 16.1 49.29 16.226 49.29 C 16.36 49.29 16.46 49.327 16.526 49.4 C 16.593 49.467 16.626 49.557 16.626 49.67 C 16.626 49.777 16.593 49.863 16.526 49.93 C 16.46 50.003 16.36 50.04 16.226 50.04 C 16.1 50.04 16.003 50.003 15.936 49.93 C 15.87 49.863 15.836 49.777 15.836 49.67 ZM 20.607 50 L 19.947 50 C 19.914 49.927 19.884 49.797 19.857 49.61 C 19.564 49.917 19.214 50.07 18.807 50.07 C 18.441 50.07 18.141 49.967 17.907 49.76 C 17.674 49.553 17.557 49.29 17.557 48.97 C 17.557 48.59 17.704 48.293 17.997 48.08 C 18.291 47.867 18.704 47.76 19.237 47.76 L 19.847 47.76 L 19.847 47.47 C 19.847 47.25 19.781 47.073 19.647 46.94 C 19.521 46.807 19.327 46.74 19.067 46.74 C 18.841 46.74 18.651 46.797 18.497 46.91 C 18.344 47.023 18.267 47.163 18.267 47.33 L 17.637 47.33 C 17.637 47.143 17.701 46.963 17.827 46.79 C 17.961 46.617 18.141 46.48 18.367 46.38 C 18.587 46.28 18.834 46.23 19.107 46.23 C 19.534 46.23 19.867 46.337 20.107 46.55 C 20.347 46.763 20.471 47.057 20.477 47.43 L 20.477 49.14 C 20.477 49.473 20.521 49.743 20.607 49.95 L 20.607 50 Z M 18.897 49.52 C 19.097 49.52 19.287 49.467 19.467 49.36 C 19.641 49.26 19.767 49.127 19.847 48.96 L 19.847 48.21 L 19.357 48.21 C 18.577 48.21 18.187 48.437 18.187 48.89 C 18.187 49.083 18.254 49.237 18.387 49.35 C 18.521 49.463 18.691 49.52 18.897 49.52 ZM 23.262 46.28 L 23.262 46.87 C 23.162 46.857 23.059 46.85 22.952 46.85 C 22.532 46.85 22.249 47.023 22.102 47.37 L 22.102 50 L 21.472 50 L 21.472 46.3 L 22.082 46.3 L 22.092 46.73 C 22.306 46.397 22.602 46.23 22.982 46.23 C 23.102 46.23 23.196 46.247 23.262 46.28 ZM 23.614 48.17 L 23.614 48.12 C 23.614 47.553 23.751 47.097 24.024 46.75 C 24.291 46.403 24.641 46.23 25.074 46.23 C 25.508 46.23 25.851 46.38 26.104 46.68 L 26.104 44.75 L 26.744 44.75 L 26.744 50 L 26.154 50 L 26.124 49.6 C 25.871 49.913 25.521 50.07 25.074 50.07 C 24.641 50.07 24.291 49.893 24.024 49.54 C 23.751 49.193 23.614 48.737 23.614 48.17 Z M 24.254 48.19 C 24.254 48.61 24.341 48.94 24.514 49.18 C 24.688 49.413 24.924 49.53 25.224 49.53 C 25.631 49.53 25.924 49.35 26.104 48.99 L 26.104 47.29 C 25.918 46.943 25.628 46.77 25.234 46.77 C 24.928 46.77 24.688 46.89 24.514 47.13 C 24.341 47.37 24.254 47.723 24.254 48.19 ZM 30.659 50 L 29.999 50 C 29.966 49.927 29.936 49.797 29.909 49.61 C 29.616 49.917 29.266 50.07 28.859 50.07 C 28.493 50.07 28.193 49.967 27.959 49.76 C 27.726 49.553 27.609 49.29 27.609 48.97 C 27.609 48.59 27.756 48.293 28.049 48.08 C 28.343 47.867 28.756 47.76 29.289 47.76 L 29.899 47.76 L 29.899 47.47 C 29.899 47.25 29.833 47.073 29.699 46.94 C 29.573 46.807 29.379 46.74 29.119 46.74 C 28.893 46.74 28.703 46.797 28.549 46.91 C 28.396 47.023 28.319 47.163 28.319 47.33 L 27.689 47.33 C 27.689 47.143 27.753 46.963 27.879 46.79 C 28.013 46.617 28.193 46.48 28.419 46.38 C 28.639 46.28 28.886 46.23 29.159 46.23 C 29.586 46.23 29.919 46.337 30.159 46.55 C 30.399 46.763 30.523 47.057 30.529 47.43 L 30.529 49.14 C 30.529 49.473 30.573 49.743 30.659 49.95 L 30.659 50 Z M 28.949 49.52 C 29.149 49.52 29.339 49.467 29.519 49.36 C 29.693 49.26 29.819 49.127 29.899 48.96 L 29.899 48.21 L 29.409 48.21 C 28.629 48.21 28.239 48.437 28.239 48.89 C 28.239 49.083 28.306 49.237 28.439 49.35 C 28.573 49.463 28.743 49.52 28.949 49.52 ZM 31.744 45.41 L 32.384 45.41 L 32.384 46.3 L 33.074 46.3 L 33.074 46.79 L 32.384 46.79 L 32.384 49.08 C 32.384 49.233 32.414 49.347 32.474 49.42 C 32.534 49.493 32.638 49.53 32.784 49.53 C 32.858 49.53 32.958 49.517 33.084 49.49 L 33.084 50 C 32.918 50.047 32.758 50.07 32.604 50.07 C 32.318 50.07 32.104 49.983 31.964 49.81 C 31.818 49.643 31.744 49.4 31.744 49.08 L 31.744 46.79 L 31.074 46.79 L 31.074 46.3 L 31.744 46.3 L 31.744 45.41 ZM 36.749 50 L 36.089 50 C 36.056 49.927 36.026 49.797 35.999 49.61 C 35.706 49.917 35.356 50.07 34.949 50.07 C 34.583 50.07 34.283 49.967 34.049 49.76 C 33.816 49.553 33.699 49.29 33.699 48.97 C 33.699 48.59 33.846 48.293 34.139 48.08 C 34.433 47.867 34.846 47.76 35.379 47.76 L 35.989 47.76 L 35.989 47.47 C 35.989 47.25 35.923 47.073 35.789 46.94 C 35.663 46.807 35.469 46.74 35.209 46.74 C 34.983 46.74 34.793 46.797 34.639 46.91 C 34.486 47.023 34.409 47.163 34.409 47.33 L 33.779 47.33 C 33.779 47.143 33.843 46.963 33.969 46.79 C 34.103 46.617 34.283 46.48 34.509 46.38 C 34.729 46.28 34.976 46.23 35.249 46.23 C 35.676 46.23 36.009 46.337 36.249 46.55 C 36.489 46.763 36.613 47.057 36.619 47.43 L 36.619 49.14 C 36.619 49.473 36.663 49.743 36.749 49.95 L 36.749 50 Z M 35.039 49.52 C 35.239 49.52 35.429 49.467 35.609 49.36 C 35.783 49.26 35.909 49.127 35.989 48.96 L 35.989 48.21 L 35.499 48.21 C 34.719 48.21 34.329 48.437 34.329 48.89 C 34.329 49.083 34.396 49.237 34.529 49.35 C 34.663 49.463 34.833 49.52 35.039 49.52 ZM 37.624 49.67 C 37.624 49.557 37.658 49.467 37.724 49.4 C 37.791 49.327 37.888 49.29 38.014 49.29 C 38.148 49.29 38.248 49.327 38.314 49.4 C 38.381 49.467 38.414 49.557 38.414 49.67 C 38.414 49.777 38.381 49.863 38.314 49.93 C 38.248 50.003 38.148 50.04 38.014 50.04 C 37.888 50.04 37.791 50.003 37.724 49.93 C 37.658 49.863 37.624 49.777 37.624 49.67 ZM 40.395 50 L 39.765 50 L 39.765 46.79 L 39.185 46.79 L 39.185 46.3 L 39.765 46.3 L 39.765 45.92 C 39.765 45.527 39.872 45.22 40.085 45 C 40.299 44.787 40.599 44.68 40.985 44.68 C 41.132 44.68 41.275 44.7 41.415 44.74 L 41.385 45.25 C 41.279 45.23 41.162 45.22 41.035 45.22 C 40.835 45.22 40.679 45.28 40.565 45.4 C 40.452 45.52 40.395 45.69 40.395 45.91 L 40.395 46.3 L 41.185 46.3 L 41.185 46.79 L 40.395 46.79 L 40.395 50 ZM 43.674 46.28 L 43.674 46.87 C 43.574 46.857 43.47 46.85 43.364 46.85 C 42.944 46.85 42.66 47.023 42.514 47.37 L 42.514 50 L 41.884 50 L 41.884 46.3 L 42.494 46.3 L 42.504 46.73 C 42.717 46.397 43.014 46.23 43.394 46.23 C 43.514 46.23 43.607 46.247 43.674 46.28 Z" transform="matrix(0.8660250306129456, -0.5, 0.5, 0.8660260438919067, 45.93434143066406, 88.06256103515625)" style="fill: rgb(242, 175, 0); white-space: pre;"/>
  <path d="M 46.488 57.715 C 46.488 56.988 46.131 56.418 45.418 56.005 C 44.698 55.585 43.545 55.212 41.958 54.885 C 36.685 53.778 34.048 51.535 34.048 48.155 C 34.048 46.188 34.865 44.545 36.498 43.225 C 38.131 41.905 40.268 41.245 42.908 41.245 C 45.721 41.245 47.971 41.908 49.658 43.235 C 51.351 44.562 52.198 46.285 52.198 48.405 L 46.268 48.405 C 46.268 47.558 45.995 46.858 45.448 46.305 C 44.901 45.745 44.045 45.465 42.878 45.465 C 41.885 45.465 41.115 45.692 40.568 46.145 C 40.021 46.598 39.748 47.172 39.748 47.865 C 39.748 48.525 40.058 49.055 40.678 49.455 C 41.298 49.862 42.348 50.212 43.828 50.505 C 45.301 50.798 46.545 51.128 47.558 51.495 C 50.691 52.648 52.258 54.638 52.258 57.465 C 52.258 59.492 51.388 61.128 49.648 62.375 C 47.915 63.628 45.675 64.255 42.928 64.255 C 41.068 64.255 39.415 63.925 37.968 63.265 C 36.528 62.598 35.398 61.688 34.578 60.535 C 33.758 59.382 33.348 58.135 33.348 56.795 L 38.968 56.795 C 39.021 57.842 39.411 58.648 40.138 59.215 C 40.858 59.775 41.828 60.055 43.048 60.055 C 44.181 60.055 45.038 59.838 45.618 59.405 C 46.198 58.972 46.488 58.408 46.488 57.715 ZM 61.851 32.345 L 61.851 44.075 C 63.424 42.188 65.401 41.245 67.781 41.245 C 72.594 41.245 75.034 44.042 75.101 49.635 L 75.101 63.845 L 69.171 63.845 L 69.171 49.795 C 69.171 48.522 68.897 47.582 68.351 46.975 C 67.804 46.368 66.894 46.065 65.621 46.065 C 63.887 46.065 62.631 46.735 61.851 48.075 L 61.851 63.845 L 55.921 63.845 L 55.921 32.345 L 61.851 32.345 ZM 85.82 41.655 L 85.82 63.845 L 79.87 63.845 L 79.87 41.655 L 85.82 41.655 Z M 79.53 35.915 C 79.53 35.028 79.827 34.295 80.42 33.715 C 81.014 33.142 81.824 32.855 82.85 32.855 C 83.864 32.855 84.67 33.142 85.27 33.715 C 85.87 34.295 86.17 35.028 86.17 35.915 C 86.17 36.815 85.867 37.552 85.26 38.125 C 84.647 38.698 83.844 38.985 82.85 38.985 C 81.85 38.985 81.047 38.698 80.44 38.125 C 79.834 37.552 79.53 36.815 79.53 35.915 ZM 90.575 41.655 L 96.155 41.655 L 96.345 44.215 C 97.925 42.235 100.048 41.245 102.715 41.245 C 105.068 41.245 106.818 41.935 107.965 43.315 C 109.118 44.695 109.708 46.762 109.735 49.515 L 109.735 63.845 L 103.805 63.845 L 103.805 49.655 C 103.805 48.395 103.532 47.482 102.985 46.915 C 102.438 46.348 101.528 46.065 100.255 46.065 C 98.588 46.065 97.338 46.775 96.505 48.195 L 96.505 63.845 L 90.575 63.845 L 90.575 41.655 ZM 118.385 41.655 L 122.505 55.455 L 126.605 41.655 L 132.965 41.655 L 124.045 67.295 L 123.555 68.455 C 122.228 71.355 120.038 72.805 116.985 72.805 C 116.125 72.805 115.252 72.675 114.365 72.415 L 114.365 67.925 L 115.265 67.945 C 116.385 67.945 117.222 67.775 117.775 67.435 C 118.335 67.095 118.772 66.528 119.085 65.735 L 119.775 63.905 L 112.005 41.655 L 118.385 41.655 Z" transform="matrix(1, 0, 0, 1, -21.47821807861328, 3.132812976837158)" style="fill: rgb(242, 175, 0); white-space: pre;"/>
  <path d="M 18.858 76.132 L 24.778 76.132 L 24.778 81.582 L 28.578 81.582 L 28.578 85.932 L 24.778 85.932 L 24.778 97.002 C 24.778 97.822 24.935 98.412 25.248 98.772 C 25.568 99.125 26.171 99.302 27.058 99.302 C 27.711 99.302 28.291 99.255 28.798 99.162 L 28.798 103.652 C 27.638 104.005 26.441 104.182 25.208 104.182 C 21.055 104.182 18.938 102.082 18.858 97.882 L 18.858 85.932 L 15.618 85.932 L 15.618 81.582 L 18.858 81.582 L 18.858 76.132 ZM 30.333 92.742 L 30.333 92.472 C 30.333 90.272 30.759 88.309 31.613 86.582 C 32.459 84.862 33.679 83.532 35.273 82.592 C 36.859 81.645 38.706 81.172 40.813 81.172 C 43.806 81.172 46.249 82.089 48.143 83.922 C 50.036 85.755 51.093 88.242 51.313 91.382 L 51.353 92.902 C 51.353 96.309 50.403 99.039 48.503 101.092 C 46.603 103.152 44.053 104.182 40.853 104.182 C 37.659 104.182 35.106 103.155 33.193 101.102 C 31.286 99.055 30.333 96.269 30.333 92.742 Z M 36.263 92.902 C 36.263 95.009 36.659 96.619 37.453 97.732 C 38.246 98.845 39.379 99.402 40.853 99.402 C 42.293 99.402 43.416 98.852 44.223 97.752 C 45.029 96.652 45.433 94.892 45.433 92.472 C 45.433 90.405 45.029 88.805 44.223 87.672 C 43.416 86.539 42.279 85.972 40.813 85.972 C 39.366 85.972 38.246 86.535 37.453 87.662 C 36.659 88.789 36.263 90.535 36.263 92.902 ZM 54.079 92.742 L 54.079 92.472 C 54.079 90.272 54.505 88.309 55.359 86.582 C 56.205 84.862 57.425 83.532 59.019 82.592 C 60.605 81.645 62.452 81.172 64.559 81.172 C 67.552 81.172 69.995 82.089 71.889 83.922 C 73.782 85.755 74.839 88.242 75.059 91.382 L 75.099 92.902 C 75.099 96.309 74.149 99.039 72.249 101.092 C 70.349 103.152 67.799 104.182 64.599 104.182 C 61.405 104.182 58.852 103.155 56.939 101.102 C 55.032 99.055 54.079 96.269 54.079 92.742 Z M 60.009 92.902 C 60.009 95.009 60.405 96.619 61.199 97.732 C 61.992 98.845 63.125 99.402 64.599 99.402 C 66.039 99.402 67.162 98.852 67.969 97.752 C 68.775 96.652 69.179 94.892 69.179 92.472 C 69.179 90.405 68.775 88.805 67.969 87.672 C 67.162 86.539 66.025 85.972 64.559 85.972 C 63.112 85.972 61.992 86.535 61.199 87.662 C 60.405 88.789 60.009 90.535 60.009 92.902 ZM 85.004 72.272 L 85.004 103.772 L 79.054 103.772 L 79.054 72.272 L 85.004 72.272 ZM 101.899 97.642 C 101.899 96.915 101.542 96.345 100.829 95.932 C 100.109 95.512 98.956 95.139 97.369 94.812 C 92.096 93.705 89.459 91.462 89.459 88.082 C 89.459 86.115 90.276 84.472 91.909 83.152 C 93.542 81.832 95.679 81.172 98.319 81.172 C 101.132 81.172 103.382 81.835 105.069 83.162 C 106.762 84.489 107.609 86.212 107.609 88.332 L 101.679 88.332 C 101.679 87.485 101.406 86.785 100.859 86.232 C 100.312 85.672 99.456 85.392 98.289 85.392 C 97.296 85.392 96.526 85.619 95.979 86.072 C 95.432 86.525 95.159 87.099 95.159 87.792 C 95.159 88.452 95.469 88.982 96.089 89.382 C 96.709 89.789 97.759 90.139 99.239 90.432 C 100.712 90.725 101.956 91.055 102.969 91.422 C 106.102 92.575 107.669 94.565 107.669 97.392 C 107.669 99.419 106.799 101.055 105.059 102.302 C 103.326 103.555 101.086 104.182 98.339 104.182 C 96.479 104.182 94.826 103.852 93.379 103.192 C 91.939 102.525 90.809 101.615 89.989 100.462 C 89.169 99.309 88.759 98.062 88.759 96.722 L 94.379 96.722 C 94.432 97.769 94.822 98.575 95.549 99.142 C 96.269 99.702 97.239 99.982 98.459 99.982 C 99.592 99.982 100.449 99.765 101.029 99.332 C 101.609 98.899 101.899 98.335 101.899 97.642 Z" transform="matrix(1, 0, 0, 1, 0, 0)" style="fill: rgb(242, 175, 0); text-transform: lowercase; white-space: pre;"/>
</svg>